<svg width="30" height="30" viewBox="0 0 30 30" fill="none" xmlns="http://www.w3.org/2000/svg">
<g id="lock-svgrepo-com 1">
<path id="Vector" fill-rule="evenodd" clip-rule="evenodd" d="M6.875 12.5V8.75C6.875 6.59511 7.73102 4.52849 9.25476 3.00476C10.7785 1.48103 12.8451 0.625 15 0.625C17.1549 0.625 19.2215 1.48103 20.7452 3.00476C22.269 4.52849 23.125 6.59511 23.125 8.75V12.5H23.75C25.8211 12.5 27.5 14.1789 27.5 16.25V25C27.5 27.0711 25.8211 28.75 23.75 28.75H6.25C4.17894 28.75 2.5 27.0711 2.5 25V16.25C2.5 14.1789 4.17894 12.5 6.25 12.5H6.875ZM11.9064 5.65641C12.7269 4.83594 13.8396 4.375 15 4.375C16.1604 4.375 17.2731 4.83594 18.0936 5.65641C18.9141 6.47687 19.375 7.58967 19.375 8.75V12.5H10.625V8.75C10.625 7.58967 11.0859 6.47687 11.9064 5.65641Z" fill="#C4C4C4"/>
</g>
</svg>
